
<svg xmlns="http://www.w3.org/2000/svg" version="1.1" xmlns:xlink="http://www.w3.org/1999/xlink" preserveAspectRatio="none" x="0px" y="0px" width="854px" height="480px" viewBox="0 0 854 480">
<defs>
<image id="flash0_ai_Capa_1__Image_" x="0" y="0" width="855" height="481" xlink:href="./images/flash0_ai_Capa_1__Image_.png"/>

<image id="flash0_ai_Capa_1__Path__2" x="0" y="0" width="89" height="554" xlink:href="./images/flash0_ai_Capa_1__Path__2.png"/>

<image id="flash0_ai_Capa_1__Path_" x="0" y="0" width="88" height="554" xlink:href="./images/flash0_ai_Capa_1__Path_.png"/>

<image id="flash0_ai_42_flash0_ai" x="0" y="0" width="1338" height="222" xlink:href="./images/flash0_ai_42_flash0_ai.png"/>

<image id="flash0_ai_4_flash0_ai" x="0" y="0" width="231" height="231" xlink:href="./images/flash0_ai_4_flash0_ai.png"/>

<filter id="Filter_1" x="-20%" y="-20%" width="140%" height="140%" color-interpolation-filters="sRGB">
<feColorMatrix in="SourceGraphic" type="matrix" values="1 0 0 0 0 0 1 0 0 0 0 0 1 0 0 0 0 0 0.31 0" result="result1"/>
</filter>

<g id="flash0_ai_Capa_1__Path__6_0_Layer0_0_FILL">
<path fill="#1C0318" stroke="none" d="
M 854.3 480.55
L 854.3 0 0 0 0 480.55 854.3 480.55 Z"/>
</g>

<g id="Layer11_2_FILL">
<path fill="#8AD31C" stroke="none" d="
M 32.05 0.25
L 22.4 0.25 22.4 480.8 32.05 480.8 32.05 0.25 Z"/>
</g>

<g id="Layer11_4_FILL">
<path fill="#8AD31C" stroke="none" d="
M 824.6 0.25
L 814.9 0.25 814.9 480.8 824.6 480.8 824.6 0.25 Z"/>
</g>

<g id="Layer11_6_MEMBER_0_FILL">
<path fill="#FFFFFF" stroke="none" d="
M 724.55 29.3
Q 724.95 27.5 724.9 26.4
L 724.75 25.6
Q 724.35 25.2 723.7 25 722.4 24.5 721.35 25.25
L 721.85 27.95
Q 721.95 31.05 720.05 33.05 720 33.15 720.05 33.25 720.15 33.35 720.25 33.3 723.95 31.7 724.55 29.3 Z"/>
</g>

<g id="Layer11_6_MEMBER_1_MEMBER_0_FILL">
<path fill="#FFFFFF" stroke="none" d="
M 725.45 29.6
Q 725.85 27.8 725.8 26.6
L 725.65 25.8 725.6 25.75
Q 725.15 25.35 724.5 25.1 723.15 24.6 722 25.4
L 721.9 25.45 721.95 25.55
Q 721.95 25.6 722.4 28.25 722.5 31.25 720.7 33.2 720.55 33.35 720.7 33.6
L 720.95 33.7 721.1 33.7
Q 724.85 32.1 725.45 29.6
M 725.35 25.95
Q 725.7 27 725.1 29.55 724.55 31.95 720.95 33.4 723.65 30.55 722.3 25.55 723.7 24.7 725.35 25.95 Z"/>
</g>

<g id="Layer11_6_MEMBER_2_FILL">
<path fill="#FFFFFF" stroke="none" d="
M 720 25.95
Q 720 25.35 719.6 24.95 719.15 24.55 718.55 24.55 717.95 24.55 717.55 24.95 717.1 25.35 717.1 25.95 717.1 26.5 717.55 26.9 717.95 27.3 718.55 27.3 719.15 27.3 719.6 26.9 720 26.5 720 25.95 Z"/>
</g>

<g id="Layer11_6_MEMBER_3_MEMBER_0_FILL">
<path fill="#FFFFFF" stroke="none" d="
M 676 70.1
Q 676.05 70.2 676.15 70.15
L 687.55 65.2
Q 687.8 65.15 687.85 64.9
L 689.55 60.25
Q 689.55 60.05 689.4 60.2
L 676.05 69.95
Q 675.95 70 676 70.1 Z"/>
</g>

<g id="Layer11_6_MEMBER_3_MEMBER_1_FILL">
<path fill="#FFFFFF" stroke="none" d="
M 717.6 18.6
Q 713.8 18.45 711.5 20.3 708.55 22.75 685.2 59.2 684.95 59.6 685.3 59.95 685.65 60.35 686.1 60.1
L 714.45 45.8 716.45 44.5
Q 718.5 42.85 718.6 41.2 718.7 39.35 718.3 37.75 718 36.5 716.95 33.7
L 713.95 26.6
Q 713.75 26.15 713.65 25.6 713.5 24.45 714.1 23.85 714.9 23 715.25 22.7 715.85 22.3 716.65 22.15 717.5 22.05 719.6 22.2 721.55 22.35 721.75 22.45 722.05 22.55 722.9 22.7 723.95 22.9 724.3 22.8 724.75 22.7 723.9 21.45 723.05 20.15 722.05 19.6 720.45 18.75 717.6 18.6 Z"/>
</g>

<g id="Layer11_6_MEMBER_3_MEMBER_2_FILL">
<path fill="#FFFFFF" stroke="none" d="
M 684.15 85.75
Q 684.05 86.15 684.45 86.3 684.85 86.45 685.05 86.1
L 704.75 53.6
Q 704.85 53.5 704.7 53.35 704.6 53.25 704.45 53.3
L 692.9 59 692.8 59.1 684.15 85.75 Z"/>
</g>

<g id="Layer11_6_MEMBER_3_MEMBER_3_MEMBER_0_FILL">
<path fill="#FFFFFF" stroke="none" d="
M 719.75 53.2
L 719.35 53.2 714.85 60.65 710.35 53.2 710 53.2 710 62.55 710.45 62.55 710.45 54.15 714.75 61.25 715 61.25 719.3 54.1 719.3 62.55 719.75 62.55 719.75 53.2 Z"/>
</g>

<g id="Layer11_6_MEMBER_3_MEMBER_3_MEMBER_1_FILL">
<path fill="#FFFFFF" stroke="none" d="
M 731.95 58
L 731.95 57.6 726.6 57.6 726.6 53.6 732.55 53.6 732.55 53.2 726.15 53.2 726.15 62.55 732.75 62.55 732.75 62.1 726.6 62.1 726.6 58 731.95 58 Z"/>
</g>

<g id="Layer11_6_MEMBER_3_MEMBER_3_MEMBER_2_FILL">
<path fill="#FFFFFF" stroke="none" d="
M 743.2 59.2
Q 745.55 58.55 745.55 56.3 745.55 54.85 744.5 54 743.5 53.2 741.65 53.2
L 738.25 53.2 738.25 62.55 738.75 62.55 738.75 59.4 741.65 59.4 742.75 59.3 745.15 62.55 745.7 62.55 743.2 59.2
M 741.7 53.6
Q 745.1 53.6 745.1 56.3 745.1 59 741.7 59
L 738.75 59 738.75 53.6 741.7 53.6 Z"/>
</g>

<g id="Layer11_6_MEMBER_3_MEMBER_3_MEMBER_3_FILL">
<path fill="#FFFFFF" stroke="none" d="
M 754.4 53.2
L 753.95 53.2 749.4 62.55 749.95 62.55 751.25 59.8 757.1 59.8 758.4 62.55 758.95 62.55 754.4 53.2
M 756.9 59.4
L 751.45 59.4 754.2 53.7 756.9 59.4 Z"/>
</g>

<g id="Layer11_6_MEMBER_3_MEMBER_3_MEMBER_4_FILL">
<path fill="#FFFFFF" stroke="none" d="
M 764.1 59.45
L 764.1 53.2 763.65 53.2 763.65 62.55 764.1 62.55 764.1 60.05 766.45 57.75 770.8 62.55 771.4 62.55 766.75 57.45 771.1 53.2 770.5 53.2 764.1 59.45 Z"/>
</g>

<g id="Layer11_6_MEMBER_3_MEMBER_3_MEMBER_5_FILL">
<path fill="#FFFFFF" stroke="none" d="
M 776.15 53.2
L 776.15 62.55 776.65 62.55 776.65 53.2 776.15 53.2 Z"/>
</g>

<g id="Layer11_6_MEMBER_3_MEMBER_4_MEMBER_0_FILL">
<path fill="#FFFFFF" stroke="none" d="
M 713.55 65.9
L 713.55 67.95 714.9 67.95 714.9 67.85 713.65 67.85 713.65 65.9 713.55 65.9 Z"/>
</g>

<g id="Layer11_6_MEMBER_3_MEMBER_4_MEMBER_1_FILL">
<path fill="#FFFFFF" stroke="none" d="
M 716.85 65.9
L 716.85 67.95 716.95 67.95 716.95 65.9 716.85 65.9 Z"/>
</g>

<g id="Layer11_6_MEMBER_3_MEMBER_4_MEMBER_2_FILL">
<path fill="#FFFFFF" stroke="none" d="
M 724.6 67.95
L 724.6 67.85 723.25 67.85 723.25 66.95 724.4 66.95 724.4 66.85 723.25 66.85 723.25 66 724.55 66 724.55 65.9 723.15 65.9 723.15 67.95 724.6 67.95 Z"/>
</g>

<g id="Layer11_6_MEMBER_3_MEMBER_4_MEMBER_3_FILL">
<path fill="#FFFFFF" stroke="none" d="
M 727.45 65.9
L 726.7 65.9 726.7 67.95 726.8 67.95 726.8 67.25 727.7 67.25 728.2 67.95 728.35 67.95 727.8 67.2
Q 728.3 67.15 728.3 66.6 728.3 65.9 727.45 65.9
M 726.8 66
L 727.45 66
Q 728.2 66 728.2 66.6 728.2 67.15 727.45 67.15
L 726.8 67.15 726.8 66 Z"/>
</g>

<g id="Layer11_6_MEMBER_3_MEMBER_4_MEMBER_4_FILL">
<path fill="#FFFFFF" stroke="none" d="
M 736.85 66
L 736.85 67.95 736.95 67.95 736.95 66 737.75 66 737.75 65.9 736.05 65.9 736.05 66 736.85 66 Z"/>
</g>

<g id="Layer11_6_MEMBER_3_MEMBER_4_MEMBER_5_FILL">
<path fill="#FFFFFF" stroke="none" d="
M 741.3 65.9
L 741.2 65.9 741.2 67.1
Q 741.2 67.85 740.45 67.85 739.7 67.85 739.7 67.1
L 739.7 65.9 739.6 65.9 739.6 67.1
Q 739.6 67.95 740.45 67.95 741.3 67.95 741.3 67.1
L 741.3 65.9 Z"/>
</g>

<g id="Layer11_6_MEMBER_3_MEMBER_4_MEMBER_6_FILL">
<path fill="#FFFFFF" stroke="none" d="
M 746 65.9
L 745.9 65.9 745.9 67.95 746 67.95 746 66.1 747.55 67.95 747.6 67.95 747.6 65.9 747.5 65.9 747.5 67.75 746 65.9 Z"/>
</g>

<g id="Layer11_6_MEMBER_3_MEMBER_4_MEMBER_7_FILL">
<path fill="#FFFFFF" stroke="none" d="
M 749.95 65.9
L 749.95 67.95 750.05 67.95 750.05 65.9 749.95 65.9 Z"/>
</g>

<g id="Layer11_6_MEMBER_3_MEMBER_4_MEMBER_8_FILL">
<path fill="#FFFFFF" stroke="none" d="
M 754 65.9
L 753.9 65.9 753 67.8 752.1 65.9 751.95 65.9 752.95 67.95 753.05 67.95 754 65.9 Z"/>
</g>

<g id="Layer11_6_MEMBER_3_MEMBER_4_MEMBER_9_FILL">
<path fill="#FFFFFF" stroke="none" d="
M 756 67.85
L 756 66.95 757.2 66.95 757.2 66.85 756 66.85 756 66 757.3 66 757.3 65.9 755.9 65.9 755.9 67.95 757.35 67.95 757.35 67.85 756 67.85 Z"/>
</g>

<g id="Layer11_6_MEMBER_3_MEMBER_4_MEMBER_10_FILL">
<path fill="#FFFFFF" stroke="none" d="
M 759.5 65.9
L 759.5 67.95 760.85 67.95 760.85 67.85 759.6 67.85 759.6 65.9 759.5 65.9 Z"/>
</g>

<g id="Layer11_6_MEMBER_3_MEMBER_4_MEMBER_11_FILL">
<path fill="#FFFFFF" stroke="none" d="
M 765.25 67.95
L 765.25 67.25 765.85 67.25
Q 766.75 67.25 766.75 66.6 766.75 65.9 765.85 65.9
L 765.15 65.9 765.15 67.95 765.25 67.95
M 766.6 66.6
Q 766.6 67.15 765.9 67.15
L 765.25 67.15 765.25 66 765.9 66
Q 766.6 66 766.6 66.6 Z"/>
</g>

<g id="Layer11_6_MEMBER_3_MEMBER_4_MEMBER_12_FILL">
<path fill="#FFFFFF" stroke="none" d="
M 768.8 65.9
L 768.8 67.95 768.9 67.95 768.9 67.25 769.8 67.25 770.35 67.95 770.45 67.95 769.9 67.2
Q 770.4 67.15 770.4 66.6 770.4 65.9 769.55 65.9
L 768.8 65.9
M 768.9 67.15
L 768.9 66 769.55 66
Q 770.3 66 770.3 66.6 770.3 67.15 769.55 67.15
L 768.9 67.15 Z"/>
</g>

<g id="Layer11_6_MEMBER_3_MEMBER_4_MEMBER_13_FILL">
<path fill="#FFFFFF" stroke="none" d="
M 772.35 66.95
Q 772.35 67.35 772.65 67.65 772.95 67.95 773.45 67.95 773.95 67.95 774.25 67.65 774.55 67.35 774.55 66.95 774.55 65.9 773.45 65.9 772.95 65.9 772.65 66.2 772.35 66.5 772.35 66.95
M 773.45 66
Q 773.85 66 774.15 66.25 774.45 66.55 774.45 66.95 774.45 67.35 774.15 67.6 773.85 67.85 773.45 67.85 772.45 67.85 772.45 66.95 772.45 66 773.45 66 Z"/>
</g>

<g id="Layer11_6_MEMBER_3_MEMBER_5_MEMBER_0_FILL">
<path fill="#FFFFFF" stroke="none" d="
M 715.65 24.55
L 715.75 24.4
Q 716.45 23.65 716.85 23.4 717.35 23.05 718.1 22.9 718.9 22.8 720.7 23.1 722.2 23.35 722.55 23.5 722.8 23.6 723.75 23.8 724.8 24 725.2 23.9 725.35 23.85 725.45 23.6 725.5 23.1 724.65 22 723.8 20.85 722.95 20.35 721.25 19.45 718.85 19.2 715.25 18.85 712.85 20.8 710.9 22.4 700.55 38 693.65 48.4 686.5 59.75 686.2 60.2 686.6 60.7 686.85 60.95 687.2 60.95
L 687.6 60.85 715.95 46.55
Q 716.05 46.5 718.05 45.15 720.1 43.5 720.2 41.8 720.3 39.95 719.9 38.35 719.6 37.05 718.55 34.25 717.7 32.05 716.55 29.45 715.55 27.15 715.5 27.15 715.35 26.7 715.25 26.15 715.1 25.1 715.65 24.55
M 713.05 21.05
Q 715.3 19.2 718.85 19.5 721.3 19.75 722.8 20.65 723.5 21.05 724.25 21.95 724.95 22.85 725.1 23.4
L 725.1 23.6
Q 724.75 23.65 723.8 23.5 722.9 23.3 722.7 23.2 722.2 23.05 720.75 22.8 718.85 22.45 718.05 22.6 717.2 22.75 716.65 23.15 716.25 23.4 715.5 24.2
L 715.4 24.35
Q 714.8 25 714.95 26.2 715 26.75 715.2 27.25 715.3 27.35 716.25 29.55 717.4 32.2 718.2 34.35 719.3 37.1 719.6 38.4 719.95 40 719.85 41.8 719.75 43.35 717.75 44.95
L 715.8 46.25 687.45 60.55
Q 687.05 60.8 686.85 60.45 686.5 60.2 686.75 59.9 709.75 23.7 713.05 21.05 Z"/>
</g>

<g id="Layer11_6_MEMBER_3_MEMBER_6_MEMBER_0_FILL">
<path fill="#FFFFFF" stroke="none" d="
M 684.7 88.9
Q 685 88.9 685.05 88.7
L 705.6 54.85
Q 705.8 54.55 705.55 54.4 705.3 54.15 705.05 54.3
L 693.65 59.9
Q 693.45 60 693.4 60.2
L 684.3 88.35
Q 684.1 88.75 684.5 88.85
L 684.7 88.9
M 684.8 88.55
L 684.65 88.6
Q 684.55 88.5 684.6 88.45
L 693.7 60.3 693.8 60.2 705.2 54.55 705.3 54.6
Q 705.4 54.6 705.3 54.7
L 684.8 88.55 Z"/>
</g>

<g id="Layer11_6_MEMBER_3_MEMBER_7_MEMBER_0_FILL">
<path fill="#FFFFFF" stroke="none" d="
M 676.45 71.6
L 676.55 71.6 688.6 66.4
Q 688.9 66.2 688.95 66
L 690.6 61.45
Q 690.65 61.3 690.5 61.15 690.35 61.05 690.15 61.15
L 676.35 71.25
Q 676.2 71.4 676.3 71.5 676.35 71.6 676.45 71.6
M 688.45 66.1
L 677.4 70.9 690.25 61.5 688.6 65.9
Q 688.6 66.05 688.45 66.1 Z"/>
</g>
</defs>

<g transform="matrix( 1, 0, 0, 1, 2,1) ">
<use xlink:href="#flash0_ai_Capa_1__Image_"/>
</g>

<g transform="matrix( 1, 0, 0, 1, 1.25,0.9) ">
<g transform="matrix( 1, 0, 0, 1, 0,0) ">
<use filter="url(#Filter_1)" xlink:href="#flash0_ai_Capa_1__Path__6_0_Layer0_0_FILL"/>
</g>
</g>

<g transform="matrix( 1, 0, 0, 1, 1.25,0.9) ">
<use xlink:href="#Layer11_2_FILL"/>
</g>

<g transform="matrix( 1, 0, 0, 1, -14,-36) ">
<use xlink:href="#flash0_ai_Capa_1__Path__2"/>
</g>

<g transform="matrix( 1, 0, 0, 1, 1.25,0.9) ">
<use xlink:href="#Layer11_4_FILL"/>
</g>

<g transform="matrix( 1, 0, 0, 1, 779,-36) ">
<use xlink:href="#flash0_ai_Capa_1__Path_"/>
</g>

<g transform="matrix( 1, 0, 0, 1, 1.25,0.9) ">
<use xlink:href="#Layer11_6_MEMBER_0_FILL"/>
</g>

<g transform="matrix( 1, 0, 0, 1, 1.25,0.9) ">
<use xlink:href="#Layer11_6_MEMBER_1_MEMBER_0_FILL"/>
</g>

<g transform="matrix( 1, 0, 0, 1, 1.25,0.9) ">
<use xlink:href="#Layer11_6_MEMBER_2_FILL"/>
</g>

<g transform="matrix( 1, 0, 0, 1, 1.25,0.9) ">
<use xlink:href="#Layer11_6_MEMBER_3_MEMBER_0_FILL"/>
</g>

<g transform="matrix( 1, 0, 0, 1, 1.25,0.9) ">
<use xlink:href="#Layer11_6_MEMBER_3_MEMBER_1_FILL"/>
</g>

<g transform="matrix( 1, 0, 0, 1, 1.25,0.9) ">
<use xlink:href="#Layer11_6_MEMBER_3_MEMBER_2_FILL"/>
</g>

<g transform="matrix( 1, 0, 0, 1, 1.25,0.9) ">
<use xlink:href="#Layer11_6_MEMBER_3_MEMBER_3_MEMBER_0_FILL"/>
</g>

<g transform="matrix( 1, 0, 0, 1, 1.25,0.9) ">
<use xlink:href="#Layer11_6_MEMBER_3_MEMBER_3_MEMBER_1_FILL"/>
</g>

<g transform="matrix( 1, 0, 0, 1, 1.25,0.9) ">
<use xlink:href="#Layer11_6_MEMBER_3_MEMBER_3_MEMBER_2_FILL"/>
</g>

<g transform="matrix( 1, 0, 0, 1, 1.25,0.9) ">
<use xlink:href="#Layer11_6_MEMBER_3_MEMBER_3_MEMBER_3_FILL"/>
</g>

<g transform="matrix( 1, 0, 0, 1, 1.25,0.9) ">
<use xlink:href="#Layer11_6_MEMBER_3_MEMBER_3_MEMBER_4_FILL"/>
</g>

<g transform="matrix( 1, 0, 0, 1, 1.25,0.9) ">
<use xlink:href="#Layer11_6_MEMBER_3_MEMBER_3_MEMBER_5_FILL"/>
</g>

<g transform="matrix( 1, 0, 0, 1, 1.25,0.9) ">
<use xlink:href="#Layer11_6_MEMBER_3_MEMBER_4_MEMBER_0_FILL"/>
</g>

<g transform="matrix( 1, 0, 0, 1, 1.25,0.9) ">
<use xlink:href="#Layer11_6_MEMBER_3_MEMBER_4_MEMBER_1_FILL"/>
</g>

<g transform="matrix( 1, 0, 0, 1, 1.25,0.9) ">
<use xlink:href="#Layer11_6_MEMBER_3_MEMBER_4_MEMBER_2_FILL"/>
</g>

<g transform="matrix( 1, 0, 0, 1, 1.25,0.9) ">
<use xlink:href="#Layer11_6_MEMBER_3_MEMBER_4_MEMBER_3_FILL"/>
</g>

<g transform="matrix( 1, 0, 0, 1, 1.25,0.9) ">
<use xlink:href="#Layer11_6_MEMBER_3_MEMBER_4_MEMBER_4_FILL"/>
</g>

<g transform="matrix( 1, 0, 0, 1, 1.25,0.9) ">
<use xlink:href="#Layer11_6_MEMBER_3_MEMBER_4_MEMBER_5_FILL"/>
</g>

<g transform="matrix( 1, 0, 0, 1, 1.25,0.9) ">
<use xlink:href="#Layer11_6_MEMBER_3_MEMBER_4_MEMBER_6_FILL"/>
</g>

<g transform="matrix( 1, 0, 0, 1, 1.25,0.9) ">
<use xlink:href="#Layer11_6_MEMBER_3_MEMBER_4_MEMBER_7_FILL"/>
</g>

<g transform="matrix( 1, 0, 0, 1, 1.25,0.9) ">
<use xlink:href="#Layer11_6_MEMBER_3_MEMBER_4_MEMBER_8_FILL"/>
</g>

<g transform="matrix( 1, 0, 0, 1, 1.25,0.9) ">
<use xlink:href="#Layer11_6_MEMBER_3_MEMBER_4_MEMBER_9_FILL"/>
</g>

<g transform="matrix( 1, 0, 0, 1, 1.25,0.9) ">
<use xlink:href="#Layer11_6_MEMBER_3_MEMBER_4_MEMBER_10_FILL"/>
</g>

<g transform="matrix( 1, 0, 0, 1, 1.25,0.9) ">
<use xlink:href="#Layer11_6_MEMBER_3_MEMBER_4_MEMBER_11_FILL"/>
</g>

<g transform="matrix( 1, 0, 0, 1, 1.25,0.9) ">
<use xlink:href="#Layer11_6_MEMBER_3_MEMBER_4_MEMBER_12_FILL"/>
</g>

<g transform="matrix( 1, 0, 0, 1, 1.25,0.9) ">
<use xlink:href="#Layer11_6_MEMBER_3_MEMBER_4_MEMBER_13_FILL"/>
</g>

<g transform="matrix( 1, 0, 0, 1, 1.25,0.9) ">
<use xlink:href="#Layer11_6_MEMBER_3_MEMBER_5_MEMBER_0_FILL"/>
</g>

<g transform="matrix( 1, 0, 0, 1, 1.25,0.9) ">
<use xlink:href="#Layer11_6_MEMBER_3_MEMBER_6_MEMBER_0_FILL"/>
</g>

<g transform="matrix( 1, 0, 0, 1, 1.25,0.9) ">
<use xlink:href="#Layer11_6_MEMBER_3_MEMBER_7_MEMBER_0_FILL"/>
</g>

<g transform="matrix( 0.3822479248046875, 0, 0, 0.3822479248046875, 166,11) ">
<use xlink:href="#flash0_ai_42_flash0_ai"/>
</g>

<g id="btninicio" transform="matrix( 1, 0, 0, 1, 335,149) ">
<g transform="matrix( 1, 0, 0, 1, 0,0) ">
<use xlink:href="#flash0_ai_4_flash0_ai"/>
</g>
</g>
</svg>
